{"title":"Just.Before.I.Go.2014.1080p.WEB-DL.DD5.1.H.264-RARBG","uid":11887996,"size":3254938529,"categoryP":"video","categoryS":"hd___tv_shows","magnet":"?xt=urn:btih:193502a63cb97c81ad8f0d00bb6ad0d482d18f47&amp;dn=Just.Before.I.Go.2014.1080p.WEB-DL.DD5.1.H.264-RARBG&amp;tr=udp%3A%2F%2Ftracker.openbittorrent.com%3A80&amp;tr=udp%3A%2F%2Fopen.demonii.com%3A1337&amp;tr=udp%3A%2F%2Ftracker.coppersurfer.tk%3A6969&amp;tr=udp%3A%2F%2Fexodus.desync.com%3A6969","seeders":24,"leechers":3,"uploader":"frostyon420","files":2,"time":1430890840,"description":"Complete name               : C:\\Users\\Phr0stY\\Desktop\\Just.Before.I.Go.2014.1080p.WEB-DL.DD5.1.H.264-RARBG\\Just.Before.I.Go.2014.1080p.WEB-DL.DD5.1.H.264-RARBG.mkv\nFormat                      : Matroska\nFormat version              : Version 4 / Version 2\nFile size                   : 3.03 GiB\nDuration                    : 1h 30mn\nOverall bit rate            : 4 784 Kbps\nEncoded date                : UTC 2015-05-06 03:11:05\nWriting application         : mkvmerge v6.6.0 ('The Edge Of The In Between') built on Dec  1 2013 17:55:00\nWriting library             : libebml v1.3.0 + libmatroska v1.4.1\nAttachements                : cover.jpeg\n\nVideo\nID                          : 1\nFormat                      : AVC\nFormat/Info                 : Advanced Video Codec\nFormat profile              : &lt;a class=&quot;__cf_email__&quot; href=&quot;/cdn-cgi/l/email-protection&quot; data-cfemail=&quot;dc94b5bbb49c90e8f2ec&quot;&gt;[email&amp;#160;protected]&lt;/a&gt;&lt;script cf-hash='f9e31' type=&quot;text/javascript&quot;&gt;\n/* &lt;![CDATA[ */!function(){try{var t=&quot;currentScript&quot;in document?document.currentScript:function(){for(var t=document.getElementsByTagName(&quot;script&quot;),e=t.length;e--;)if(t[e].getAttribute(&quot;cf-hash&quot;))return t[e]}();if(t&amp;&amp;t.previousSibling){var e,r,n,i,c=t.previousSibling,a=c.getAttribute(&quot;data-cfemail&quot;);if(a){for(e=&quot;&quot;,r=parseInt(a.substr(0,2),16),n=2;a.length-n;n+=2)i=parseInt(a.substr(n,2),16)^r,e+=String.fromCharCode(i);e=document.createTextNode(e),c.parentNode.replaceChild(e,c)}}}catch(u){}}();/* ]]&gt; */&lt;/script&gt;\nFormat settings, CABAC      : Yes\nFormat settings, ReFrames   : 5 frames\nCodec ID                    : V_MPEG4/ISO/AVC\nDuration                    : 1h 30mn\nBit rate                    : 4 304 Kbps\nWidth                       : 1 908 pixels\nHeight                      : 794 pixels\nDisplay aspect ratio        : 2.40:1\nFrame rate mode             : Constant\nFrame rate                  : 23.976 fps\nColor space                 : YUV\nChroma subsampling          : 4:2:0\nBit depth                   : 8 bits\nScan type                   : Progressive\nBits/(Pixel*Frame)          : 0.119\nStream size                 : 2.73 GiB (90%)\nLanguage                    : English\nDefault                     : Yes\nForced                      : No\nColor primaries             : BT.709\nTransfer characteristics    : BT.709\nMatrix coefficients         : BT.709\nColor range                 : Limited\n\nAudio\nID                          : 2\nFormat                      : AC-3\nFormat/Info                 : Audio Coding 3\nMode extension              : CM (complete main)\nFormat settings, Endianness : Big\nCodec ID                    : A_AC3\nDuration                    : 1h 30mn\nBit rate mode               : Constant\nBit rate                    : 384 Kbps\nChannel(s)                  : 6 channels\nChannel positions           : Front: L C R, Side: L R, LFE\nSampling rate               : 48.0 KHz\nBit depth                   : 16 bits\nCompression mode            : Lossy\nStream size                 : 249 MiB (8%)\nLanguage                    : English\nDefault                     : Yes\nForced                      : No\n\nText\nID                          : 3\nFormat                      : UTF-8\nCodec ID                    : S_TEXT/UTF8\nCodec ID/Info               : UTF-8 Plain Text\nLanguage                    : English\nDefault                     : No\nForced                      : No","torrent":{"xt":"urn:btih:193502a63cb97c81ad8f0d00bb6ad0d482d18f47","amp;dn":"Just.Before.I.Go.2014.1080p.WEB-DL.DD5.1.H.264-RARBG","amp;tr":["udp%3A%2F%2Ftracker.openbittorrent.com%3A80","udp%3A%2F%2Fopen.demonii.com%3A1337","udp%3A%2F%2Ftracker.coppersurfer.tk%3A6969","udp%3A%2F%2Fexodus.desync.com%3A6969"],"infoHash":"193502a63cb97c81ad8f0d00bb6ad0d482d18f47","infoHashBuffer":{"type":"Buffer","data":[25,53,2,166,60,185,124,129,173,143,13,0,187,106,208,212,130,209,143,71]},"announce":[],"urlList":[]}}